# xmcd
#
# Track frame offsets:
#	150
#	16295
#	39395
#	55381
#	75916
#	99225
#	120946
#	151958
#	164238
#	186032
#	211687
#
# Disc length: 2968 seconds
#
# Revision: 2
# Processed by: cddbd v1.5.2PL0 Copyright (c) Steve Scherf et al.
# Submitted via: audiograbber 1.83.01
#
DISCID=7b0b960b
DTITLE=Tom Waits - CD1: SXSW, Austin, TX March 20, 1999
DYEAR=1999
DGENRE=Rock
TTITLE0=Walk Away
TTITLE1=16 Shells From A Thirty Ought Six
TTITLE2=Downtown Train
TTITLE3=Strange Weather
TTITLE4=Temptation
TTITLE5=Gun Street Girl
TTITLE6=I Can't Wait To Get Off Work
TTITLE7=A Little Rain
TTITLE8=Tango Till They're Sore
TTITLE9=House Where Nobody Lives
TTITLE10=Hang Down Your Head
EXTD=
EXTT0=
EXTT1=
EXTT2=
EXTT3=
EXTT4=
EXTT5=
EXTT6=
EXTT7=
EXTT8=
EXTT9=
EXTT10=
PLAYORDER=
